<?xml version="1.0" encoding="UTF-8"?>
<!DOCTYPE svg PUBLIC "-//W3C//DTD SVG 1.1//EN" "http://www.w3.org/Graphics/SVG/1.1/DTD/svg11.dtd">
<svg xmlns="http://www.w3.org/2000/svg" version="1.1" width="400px" height="140px" style="shape-rendering:geometricPrecision; text-rendering:geometricPrecision; image-rendering:optimizeQuality; fill-rule:evenodd; clip-rule:evenodd" xmlns:xlink="http://www.w3.org/1999/xlink">
<g><path style="opacity:0.997" fill="#b6b276" d="M 93.5,-0.5 C 94.8333,-0.5 96.1667,-0.5 97.5,-0.5C 98.7415,5.21043 97.7415,10.5438 94.5,15.5C 91.2109,17.1325 88.2109,19.1325 85.5,21.5C 82.1295,22.5757 78.7961,23.5757 75.5,24.5C 74.1667,24.5 72.8333,24.5 71.5,24.5C 71.3533,20.4643 72.8533,17.1309 76,14.5C 76.4828,13.552 76.6495,12.552 76.5,11.5C 81.079,5.91517 86.7456,1.91517 93.5,-0.5 Z"/></g>
<g><path style="opacity:0.999" fill="#e57c6a" d="M 319.5,21.5 C 319.047,22.4584 318.381,23.2917 317.5,24C 319.81,24.4966 322.143,24.6633 324.5,24.5C 324.802,27.0593 324.468,29.3926 323.5,31.5C 323.5,29.5 323.5,27.5 323.5,25.5C 319.21,26.4245 314.876,27.0912 310.5,27.5C 311.505,32.522 312.672,37.522 314,42.5C 317.611,56.1195 312.778,64.9528 299.5,69C 302.457,69.2794 305.123,70.1127 307.5,71.5C 309.423,74.6032 311.59,77.6032 314,80.5C 315.568,84.8144 315.735,89.1477 314.5,93.5C 313.712,96.6209 311.712,98.2876 308.5,98.5C 307.624,98.6309 306.957,98.2975 306.5,97.5C 310.293,93.9736 311.46,89.6403 310,84.5C 309.623,83.0577 308.79,82.0577 307.5,81.5C 306.5,81.1667 305.833,80.5 305.5,79.5C 305.489,77.9826 304.823,76.8159 303.5,76C 297.323,72.2742 290.656,69.9408 283.5,69C 284.624,68.7508 285.624,68.2508 286.5,67.5C 285.691,65.9291 285.357,64.2624 285.5,62.5C 286.251,61.4265 287.251,61.2599 288.5,62C 292.837,65.9974 297.503,66.1641 302.5,62.5C 307.017,58.1495 308.684,52.8161 307.5,46.5C 307.706,43.5049 307.04,40.8383 305.5,38.5C 304.207,35.3209 303.54,31.9876 303.5,28.5C 300.5,28.5 297.5,28.5 294.5,28.5C 294.238,27.0222 294.571,25.6888 295.5,24.5C 297.548,23.23 299.548,22.8967 301.5,23.5C 302.677,9.15805 310.343,3.32472 324.5,6C 326.698,7.67004 327.032,9.67004 325.5,12C 321.131,11.7296 316.798,11.8962 312.5,12.5C 310.816,15.6124 310.15,18.9457 310.5,22.5C 313.545,22.4921 316.545,22.1587 319.5,21.5 Z"/></g>
<g><path style="opacity:0.996" fill="#bb977a" d="M 76.5,11.5 C 76.6495,12.552 76.4828,13.552 76,14.5C 72.8533,17.1309 71.3533,20.4643 71.5,24.5C 72.8333,24.5 74.1667,24.5 75.5,24.5C 72.3818,26.0068 69.7151,25.3401 67.5,22.5C 68.0967,22.2648 68.4301,21.7648 68.5,21C 66.6,14.9064 65.2667,8.73978 64.5,2.5C 67.4824,2.03714 70.4824,1.70381 73.5,1.5C 73.3345,5.51383 73.5012,9.51383 74,13.5C 74.7083,12.6195 75.5416,11.9528 76.5,11.5 Z"/></g>
<g><path style="opacity:0.999" fill="#e57c6c" d="M 323.5,31.5 C 324.468,29.3926 324.802,27.0593 324.5,24.5C 322.143,24.6633 319.81,24.4966 317.5,24C 318.381,23.2917 319.047,22.4584 319.5,21.5C 318.465,19.795 318.465,18.1284 319.5,16.5C 322.719,13.5106 326.053,13.1773 329.5,15.5C 330.246,16.7362 330.579,18.0695 330.5,19.5C 333.066,19.6556 335.566,19.3223 338,18.5C 339.5,18.6667 340.333,19.5 340.5,21C 337.863,23.9499 334.529,25.1166 330.5,24.5C 330.22,31.1836 330.053,37.8503 330,44.5C 332.363,48.1104 335.196,48.4437 338.5,45.5C 339.614,46.723 339.781,48.0563 339,49.5C 333.618,53.3221 328.284,53.3221 323,49.5C 321.66,43.5119 321.827,37.5119 323.5,31.5 Z"/></g>
<g><path style="opacity:0.569" fill="#eba79f" d="M 61.5,20.5 C 54.6866,21.4912 47.6866,21.8245 40.5,21.5C 43.7178,20.0458 47.2178,19.3791 51,19.5C 54.5226,19.7067 58.0226,20.04 61.5,20.5 Z"/></g>
<g><path style="opacity:1" fill="#de6b5c" d="M 97.5,14.5 C 102.24,16.0146 107.24,17.3479 112.5,18.5C 110.5,19.5 108.5,20.5 106.5,21.5C 106.846,22.6956 107.346,22.6956 108,21.5C 108.749,22.635 108.583,23.635 107.5,24.5C 104.109,26.189 101.109,28.3557 98.5,31C 99.3081,31.3076 99.9747,31.8076 100.5,32.5C 99.1667,33.8333 99.1667,35.1667 100.5,36.5C 99.9747,37.1924 99.3081,37.6924 98.5,38C 101.758,38.2117 104.924,38.7117 108,39.5C 108.388,38.572 109.055,37.9054 110,37.5C 115.458,38.8593 119.624,37.0259 122.5,32C 126.194,30.8018 129.528,28.9685 132.5,26.5C 134.492,27.7691 136.492,29.1025 138.5,30.5C 140.108,33.9909 141.108,37.6576 141.5,41.5C 141.5,45.1667 141.5,48.8333 141.5,52.5C 140.883,52.3893 140.383,52.056 140,51.5C 139.713,49.1093 139.213,46.7759 138.5,44.5C 137.311,43.5713 135.978,43.238 134.5,43.5C 134.649,42.448 134.483,41.448 134,40.5C 132.883,40.6651 131.716,40.9984 130.5,41.5C 129.086,40.376 127.586,39.376 126,38.5C 126.819,42.1688 126.652,45.8355 125.5,49.5C 124.022,49.238 122.689,49.5713 121.5,50.5C 122.506,51.3957 122.506,52.0623 121.5,52.5C 120.572,50.6652 119.406,50.3318 118,51.5C 117.667,50.8333 117.333,50.1667 117,49.5C 116.51,50.7932 116.343,52.1266 116.5,53.5C 114.833,53.5 113.167,53.5 111.5,53.5C 110.766,52.2921 110.433,50.9587 110.5,49.5C 107.363,48.2214 104.363,48.5547 101.5,50.5C 100.351,50.2089 99.6842,49.3756 99.5,48C 99.9991,45.9954 101.166,44.4954 103,43.5C 103.521,40.8824 102.354,39.549 99.5,39.5C 95.2784,40.6614 94.6117,42.828 97.5,46C 96.8742,46.7504 96.3742,47.5838 96,48.5C 93.0068,44.5116 90.0068,40.5116 87,36.5C 86.0691,38.4595 85.2357,40.4595 84.5,42.5C 81.1853,44.1486 78.5187,46.482 76.5,49.5C 75.8333,49.5 75.1667,49.5 74.5,49.5C 72.5541,46.5372 70.5541,43.5372 68.5,40.5C 69.1152,38.8839 70.1152,37.5505 71.5,36.5C 72.8498,37.9501 74.5165,38.6168 76.5,38.5C 76.5,40.5 76.5,42.5 76.5,44.5C 77.8734,44.6567 79.2068,44.49 80.5,44C 82.3842,41.2853 84.0509,38.452 85.5,35.5C 87.7099,34.5449 88.0432,33.0449 86.5,31C 87.1667,30 87.8333,29 88.5,28C 84.8637,26.899 83.8637,24.7323 85.5,21.5C 88.2109,19.1325 91.2109,17.1325 94.5,15.5C 95.609,15.4431 96.609,15.1098 97.5,14.5 Z"/></g>
<g><path style="opacity:1" fill="#e1796a" d="M 97.5,14.5 C 110.552,14.0446 122.552,17.2113 133.5,24C 135.79,25.7772 137.457,27.9438 138.5,30.5C 136.492,29.1025 134.492,27.7691 132.5,26.5C 129.528,28.9685 126.194,30.8018 122.5,32C 119.624,37.0259 115.458,38.8593 110,37.5C 109.055,37.9054 108.388,38.572 108,39.5C 104.924,38.7117 101.758,38.2117 98.5,38C 99.3081,37.6924 99.9747,37.1924 100.5,36.5C 99.1667,35.1667 99.1667,33.8333 100.5,32.5C 99.9747,31.8076 99.3081,31.3076 98.5,31C 101.109,28.3557 104.109,26.189 107.5,24.5C 108.583,23.635 108.749,22.635 108,21.5C 107.346,22.6956 106.846,22.6956 106.5,21.5C 108.5,20.5 110.5,19.5 112.5,18.5C 107.24,17.3479 102.24,16.0146 97.5,14.5 Z"/></g>
<g><path style="opacity:1" fill="#df7162" d="M 61.5,20.5 C 63.5,21.1667 65.5,21.8333 67.5,22.5C 69.7151,25.3401 72.3818,26.0068 75.5,24.5C 78.7961,23.5757 82.1295,22.5757 85.5,21.5C 83.8637,24.7323 84.8637,26.899 88.5,28C 87.8333,29 87.1667,30 86.5,31C 88.0432,33.0449 87.7099,34.5449 85.5,35.5C 83.0657,37.1575 80.5657,37.8242 78,37.5C 77.5172,36.552 77.3505,35.552 77.5,34.5C 74.9301,33.2838 72.4301,32.6171 70,32.5C 67.5359,33.6508 65.0359,34.6508 62.5,35.5C 62.9167,32.9208 62.25,30.7542 60.5,29C 51.4982,28.9526 42.4982,28.9526 33.5,29C 36.7532,27.7262 39.0865,25.5595 40.5,22.5C 40.5,22.1667 40.5,21.8333 40.5,21.5C 47.6866,21.8245 54.6866,21.4912 61.5,20.5 Z"/></g>
<g><path style="opacity:0.999" fill="#e47b6a" d="M 247.5,26.5 C 247.167,26.5 246.833,26.5 246.5,26.5C 245.142,27.6256 243.808,27.6256 242.5,26.5C 243.544,24.2324 243.711,21.8991 243,19.5C 242.329,18.7476 241.496,18.4142 240.5,18.5C 231.771,12.2729 222.104,10.7729 211.5,14C 205.181,16.3297 199.348,19.4964 194,23.5C 188.527,33.2496 189.694,42.0829 197.5,50C 207.036,58.1352 218.036,61.1352 230.5,59C 235.498,57.7903 240.165,55.957 244.5,53.5C 244.714,55.1439 244.38,56.6439 243.5,58C 230.684,65.9959 217.017,67.6625 202.5,63C 188.573,56.4434 182.407,45.61 184,30.5C 187.009,24.149 191.509,18.9824 197.5,15C 207.41,9.08359 218.077,5.91693 229.5,5.5C 236.144,6.40535 241.977,9.07202 247,13.5C 250.089,17.676 250.256,22.0094 247.5,26.5 Z"/></g>
<g><path style="opacity:0.365" fill="#e99284" d="M 240.5,18.5 C 241.496,18.4142 242.329,18.7476 243,19.5C 243.711,21.8991 243.544,24.2324 242.5,26.5C 243.808,27.6256 245.142,27.6256 246.5,26.5C 246.833,27.8333 247.167,27.8333 247.5,26.5C 248.167,26.5 248.833,26.5 249.5,26.5C 248.375,28.1288 247.041,29.6288 245.5,31C 248.901,30.734 250.567,32.234 250.5,35.5C 249.534,32.8374 247.868,32.1707 245.5,33.5C 243.823,32.8131 242.156,32.1465 240.5,31.5C 236.299,34.2522 231.632,35.0856 226.5,34C 222.579,32.2526 221.579,29.4192 223.5,25.5C 224.438,24.4471 225.605,23.7804 227,23.5C 228.667,24.7665 230.167,26.2665 231.5,28C 239.563,29.4398 242.563,26.2732 240.5,18.5 Z"/></g>
<g><path style="opacity:0.998" fill="#e16d5a" d="M 249.5,26.5 C 252.313,26.0246 254.313,27.0246 255.5,29.5C 254.566,30.5676 254.232,31.901 254.5,33.5C 255.552,33.6495 256.552,33.4828 257.5,33C 258.155,31.5134 259.155,30.3467 260.5,29.5C 260.833,30 261.167,30.5 261.5,31C 258.006,37.3385 256.673,44.1718 257.5,51.5C 256.167,51.5 254.833,51.5 253.5,51.5C 253.306,45.8802 252.306,40.5469 250.5,35.5C 250.567,32.234 248.901,30.734 245.5,31C 247.041,29.6288 248.375,28.1288 249.5,26.5 Z"/></g>
<g><path style="opacity:0.89" fill="#eba7a0" d="M 40.5,21.5 C 40.5,21.8333 40.5,22.1667 40.5,22.5C 37.1949,24.8193 33.5282,26.6527 29.5,28C 27.3333,31.5 24.5,34.3333 21,36.5C 20.3448,38.6284 19.5114,40.6284 18.5,42.5C 17.4955,43.6828 16.6622,45.0161 16,46.5C 14.8802,50.9738 13.7135,55.3071 12.5,59.5C 12.8349,43.9873 19.5016,32.1539 32.5,24C 35.022,22.6591 37.6887,21.8257 40.5,21.5 Z"/></g>
<g><path style="opacity:0.913" fill="#e26f5e" d="M 240.5,31.5 C 235.528,32.4216 230.528,32.5883 225.5,32C 224.241,29.328 224.908,27.1614 227.5,25.5C 231.291,30.9297 235.791,31.5964 241,27.5C 241.579,28.9285 241.412,30.2618 240.5,31.5 Z"/></g>
<g><path style="opacity:1" fill="#df7365" d="M 40.5,22.5 C 39.0865,25.5595 36.7532,27.7262 33.5,29C 42.4982,28.9526 51.4982,28.9526 60.5,29C 62.25,30.7542 62.9167,32.9208 62.5,35.5C 65.0359,34.6508 67.5359,33.6508 70,32.5C 72.4301,32.6171 74.9301,33.2838 77.5,34.5C 77.3505,35.552 77.5172,36.552 78,37.5C 80.5657,37.8242 83.0657,37.1575 85.5,35.5C 84.0509,38.452 82.3842,41.2853 80.5,44C 79.2068,44.49 77.8734,44.6567 76.5,44.5C 76.5,42.5 76.5,40.5 76.5,38.5C 74.5165,38.6168 72.8498,37.9501 71.5,36.5C 70.1152,37.5505 69.1152,38.8839 68.5,40.5C 70.5541,43.5372 72.5541,46.5372 74.5,49.5C 70.8423,51.0451 67.1756,52.7117 63.5,54.5C 62.1667,54.5 60.8333,54.5 59.5,54.5C 59.7224,51.3147 61.2224,50.3147 64,51.5C 65.0086,49.9751 65.5086,48.3084 65.5,46.5C 63.6096,46.7035 62.1096,46.0368 61,44.5C 59.7998,46.4116 58.1331,47.7449 56,48.5C 55.8707,45.6963 56.204,43.0297 57,40.5C 55.4941,38.8258 53.6607,37.8258 51.5,37.5C 51.5,38.5 51.5,39.5 51.5,40.5C 45.6238,40.3564 39.6238,41.023 33.5,42.5C 29.9321,39.8854 26.5988,40.2187 23.5,43.5C 22.8333,42.5 22.1667,41.5 21.5,40.5C 20.7348,41.6119 19.7348,42.2786 18.5,42.5C 19.5114,40.6284 20.3448,38.6284 21,36.5C 24.5,34.3333 27.3333,31.5 29.5,28C 33.5282,26.6527 37.1949,24.8193 40.5,22.5 Z"/></g>
<g><path style="opacity:0.137" fill="#eec9c5" d="M 138.5,30.5 C 141.038,33.2452 142.538,36.5785 143,40.5C 143.499,46.4908 143.666,52.4908 143.5,58.5C 142.833,52.8333 142.167,47.1667 141.5,41.5C 141.108,37.6576 140.108,33.9909 138.5,30.5 Z"/></g>
<g><path style="opacity:1" fill="#df6c58" d="M 101.5,50.5 C 102.319,54.2156 102.319,57.8822 101.5,61.5C 103.045,62.4519 104.712,62.7852 106.5,62.5C 106.665,65.5036 105.332,67.5036 102.5,68.5C 101.167,67.1667 99.8333,67.1667 98.5,68.5C 98.0024,67.3966 97.6691,66.3966 97.5,65.5C 96.7348,66.6119 95.7348,67.2786 94.5,67.5C 95.0478,65.4677 96.3812,64.4677 98.5,64.5C 98.6495,63.448 98.4828,62.448 98,61.5C 95.5003,61.5433 93.0003,61.8766 90.5,62.5C 90.6261,64.1998 91.2927,65.6998 92.5,67C 92.1377,68.2247 91.6377,69.3914 91,70.5C 88.595,70.964 86.095,71.1307 83.5,71C 85.8677,72.7354 85.3677,73.9021 82,74.5C 81.5,74.3333 81,74.1667 80.5,74C 83.1519,71.2743 82.4853,69.2743 78.5,68C 81.0352,67.0718 82.0352,65.2385 81.5,62.5C 79.5165,62.6168 77.8498,61.9501 76.5,60.5C 76.7093,59.914 77.0426,59.414 77.5,59C 76.1279,57.7581 75.1279,56.2581 74.5,54.5C 78.6416,54.634 79.3082,52.9673 76.5,49.5C 78.5187,46.482 81.1853,44.1486 84.5,42.5C 85.2357,40.4595 86.0691,38.4595 87,36.5C 90.0068,40.5116 93.0068,44.5116 96,48.5C 96.3742,47.5838 96.8742,46.7504 97.5,46C 94.6117,42.828 95.2784,40.6614 99.5,39.5C 102.354,39.549 103.521,40.8824 103,43.5C 101.166,44.4954 99.9991,45.9954 99.5,48C 99.6842,49.3756 100.351,50.2089 101.5,50.5 Z"/></g>
<g><path style="opacity:0.196" fill="#f5cbc7" d="M 305.5,38.5 C 307.04,40.8383 307.706,43.5049 307.5,46.5C 306.232,44.0948 305.565,41.4282 305.5,38.5 Z"/></g>
<g><path style="opacity:0.843" fill="#e58170" d="M 281.5,30.5 C 285.833,30.5 290.167,30.5 294.5,30.5C 294.248,35.3855 294.581,40.2188 295.5,45C 295.833,45.5 296.167,46 296.5,46.5C 297.736,45.7542 299.07,45.4208 300.5,45.5C 300.151,49.5427 297.818,51.5427 293.5,51.5C 291.865,50.9537 290.199,50.6204 288.5,50.5C 288.162,48.146 287.662,45.8127 287,43.5C 283.564,45.5918 280.064,47.5918 276.5,49.5C 274.742,48.8721 273.242,47.8721 272,46.5C 271.429,42.9555 272.096,39.6221 274,36.5C 276.688,34.636 279.188,32.636 281.5,30.5 Z M 281.5,36.5 C 282.873,36.3433 284.207,36.51 285.5,37C 284.197,40.3279 281.864,41.9946 278.5,42C 279.223,39.9817 280.223,38.1484 281.5,36.5 Z"/></g>
<g><path style="opacity:1" fill="#de7262" d="M 63.5,54.5 C 60.5066,54.9873 57.8399,56.3206 55.5,58.5C 53.1421,56.9757 51.3088,54.9757 50,52.5C 48.0551,53.8633 45.8884,54.6966 43.5,55C 42.695,56.1127 42.0283,57.2794 41.5,58.5C 40.2089,59.5417 40.2089,60.7083 41.5,62C 37.6458,62.3541 33.8125,62.8541 30,63.5C 24.3539,60.3288 24.5206,57.9955 30.5,56.5C 30.0133,55.5539 29.6799,54.5539 29.5,53.5C 30.8239,52.9941 31.4906,51.6608 31.5,49.5C 33.924,49.8076 36.2573,49.4742 38.5,48.5C 37.6195,47.0295 36.2861,46.1962 34.5,46C 35.8333,45.3333 35.8333,44.6667 34.5,44C 32.6447,43.5779 30.8114,43.0779 29,42.5C 25.743,44.8173 22.243,45.6507 18.5,45C 16.9314,47.8054 15.9314,50.8054 15.5,54C 16.0732,56.0063 16.0732,57.8397 15.5,59.5C 16.325,60.3857 17.325,60.719 18.5,60.5C 19.1564,64.3638 20.1564,68.1972 21.5,72C 21.0116,73.584 20.0116,74.7506 18.5,75.5C 19.8333,76.5 19.8333,77.5 18.5,78.5C 19.7357,79.3567 21.069,80.0234 22.5,80.5C 23.3268,77.6255 24.3268,78.1255 25.5,82C 24.8757,86.2422 26.8757,88.7422 31.5,89.5C 32.8775,90.2344 34.3775,90.9011 36,91.5C 37.8159,89.5586 39.8159,88.8919 42,89.5C 44.1584,88.1741 45.9918,86.5075 47.5,84.5C 50.7697,87.2873 53.7697,90.2873 56.5,93.5C 58.0361,96.0922 60.3695,97.0922 63.5,96.5C 52.3724,98.9808 41.7057,97.3141 31.5,91.5C 30.8933,91.6236 30.56,91.9569 30.5,92.5C 16.9588,85.7595 10.9588,74.7595 12.5,59.5C 13.7135,55.3071 14.8802,50.9738 16,46.5C 16.6622,45.0161 17.4955,43.6828 18.5,42.5C 19.7348,42.2786 20.7348,41.6119 21.5,40.5C 22.1667,41.5 22.8333,42.5 23.5,43.5C 26.5988,40.2187 29.9321,39.8854 33.5,42.5C 39.6238,41.023 45.6238,40.3564 51.5,40.5C 51.5,39.5 51.5,38.5 51.5,37.5C 53.6607,37.8258 55.4941,38.8258 57,40.5C 56.204,43.0297 55.8707,45.6963 56,48.5C 58.1331,47.7449 59.7998,46.4116 61,44.5C 62.1096,46.0368 63.6096,46.7035 65.5,46.5C 65.5086,48.3084 65.0086,49.9751 64,51.5C 61.2224,50.3147 59.7224,51.3147 59.5,54.5C 60.8333,54.5 62.1667,54.5 63.5,54.5 Z"/></g>
<g><path style="opacity:0.114" fill="#efb4a3" d="M 188.5,57.5 C 186.331,55.6597 184.998,53.3263 184.5,50.5C 181.412,50.1966 179.746,51.5299 179.5,54.5C 178.596,53.791 178.263,52.791 178.5,51.5C 179.918,49.2918 181.918,48.4585 184.5,49C 186.782,51.3974 188.116,54.2307 188.5,57.5 Z"/></g>
<g><path style="opacity:0.812" fill="#e98e80" d="M 250.5,35.5 C 252.306,40.5469 253.306,45.8802 253.5,51.5C 254.833,51.5 256.167,51.5 257.5,51.5C 256.673,44.1718 258.006,37.3385 261.5,31C 261.167,30.5 260.833,30 260.5,29.5C 259.155,30.3467 258.155,31.5134 257.5,33C 256.552,33.4828 255.552,33.6495 254.5,33.5C 254.232,31.901 254.566,30.5676 255.5,29.5C 255.369,30.2389 255.536,30.9056 256,31.5C 258.869,28.2959 262.035,25.4626 265.5,23C 269.072,21.5951 272.739,21.2617 276.5,22C 277.591,24.0639 277.758,26.2305 277,28.5C 274.081,31.5998 270.581,33.5998 266.5,34.5C 266.081,31.6755 267.081,29.5088 269.5,28C 266.72,27.7308 264.554,28.8975 263,31.5C 260.049,37.7995 258.716,44.4661 259,51.5C 257.054,53.9944 254.721,54.6611 252,53.5C 251.037,47.535 250.537,41.535 250.5,35.5 Z"/></g>
<g><path style="opacity:1" fill="#df715e" d="M 74.5,49.5 C 75.1667,49.5 75.8333,49.5 76.5,49.5C 79.3082,52.9673 78.6416,54.634 74.5,54.5C 75.1279,56.2581 76.1279,57.7581 77.5,59C 77.0426,59.414 76.7093,59.914 76.5,60.5C 77.8498,61.9501 79.5165,62.6168 81.5,62.5C 82.0352,65.2385 81.0352,67.0718 78.5,68C 82.4853,69.2743 83.1519,71.2743 80.5,74C 81,74.1667 81.5,74.3333 82,74.5C 85.3677,73.9021 85.8677,72.7354 83.5,71C 86.095,71.1307 88.595,70.964 91,70.5C 91.6377,69.3914 92.1377,68.2247 92.5,67C 91.2927,65.6998 90.6261,64.1998 90.5,62.5C 93.0003,61.8766 95.5003,61.5433 98,61.5C 98.4828,62.448 98.6495,63.448 98.5,64.5C 96.3812,64.4677 95.0478,65.4677 94.5,67.5C 93.0687,68.7804 92.4021,70.4471 92.5,72.5C 93.8333,72.5 95.1667,72.5 96.5,72.5C 96.5,74.1667 96.5,75.8333 96.5,77.5C 92.3556,77.67 88.3556,77.0033 84.5,75.5C 83.7078,77.4648 83.0412,79.4648 82.5,81.5C 83.868,82.5937 85.0347,82.2603 86,80.5C 90.8325,83.0109 90.6659,85.1776 85.5,87C 87.4645,87.624 89.1311,87.124 90.5,85.5C 91.2298,86.9337 92.2298,88.1004 93.5,89C 92.7471,90.487 91.9138,90.6537 91,89.5C 90.4209,90.9285 90.5876,92.2618 91.5,93.5C 85.8236,93.3339 80.1569,93.5006 74.5,94C 70.9855,95.5617 67.3189,96.395 63.5,96.5C 60.3695,97.0922 58.0361,96.0922 56.5,93.5C 60.9236,95.2815 64.9236,94.6149 68.5,91.5C 66.2975,89.7046 65.1308,87.3712 65,84.5C 63.9887,83.6634 62.8221,83.33 61.5,83.5C 61.9984,80.3192 61.1651,77.6525 59,75.5C 57.809,77.8469 55.9757,78.6802 53.5,78C 52.1139,75.7927 50.7806,73.6261 49.5,71.5C 51.7572,68.1318 53.2572,64.4651 54,60.5C 50.874,62.9503 48.5406,65.9503 47,69.5C 45.9326,68.8095 44.7659,68.3095 43.5,68C 44.448,67.5172 45.448,67.3505 46.5,67.5C 46.5,66.5 46.5,65.5 46.5,64.5C 45.5,64.5 44.5,64.5 43.5,64.5C 43.3505,63.448 43.5172,62.448 44,61.5C 44.3333,61.8333 44.6667,62.1667 45,62.5C 46.2045,61.1414 47.7045,60.1414 49.5,59.5C 49.1924,58.6919 48.6924,58.0253 48,57.5C 45.8837,57.4291 43.7171,57.7624 41.5,58.5C 42.0283,57.2794 42.695,56.1127 43.5,55C 45.8884,54.6966 48.0551,53.8633 50,52.5C 51.3088,54.9757 53.1421,56.9757 55.5,58.5C 57.8399,56.3206 60.5066,54.9873 63.5,54.5C 67.1756,52.7117 70.8423,51.0451 74.5,49.5 Z"/></g>
<g><path style="opacity:0.994" fill="#f9f5ee" d="M 178.5,51.5 C 178.263,52.791 178.596,53.791 179.5,54.5C 180.907,56.3083 182.074,58.3083 183,60.5C 183.529,65.8538 183.362,71.1871 182.5,76.5C 180.75,77.6594 179.75,79.326 179.5,81.5C 172.581,91.1319 163.581,98.1319 152.5,102.5C 142.823,103.723 133.156,103.723 123.5,102.5C 123.709,101.078 124.209,99.745 125,98.5C 140.567,82.9298 156.733,68.0964 173.5,54C 175.078,52.9055 176.745,52.0722 178.5,51.5 Z"/></g>
<g><path style="opacity:0.709" fill="#efab9e" d="M 188.5,57.5 C 190.002,60.4129 191.002,63.5796 191.5,67C 190.597,71.4036 189.263,75.5702 187.5,79.5C 188.392,72.2094 188.726,64.8761 188.5,57.5 Z"/></g>
<g><path style="opacity:1" fill="#dd6a59" d="M 41.5,58.5 C 43.7171,57.7624 45.8837,57.4291 48,57.5C 48.6924,58.0253 49.1924,58.6919 49.5,59.5C 47.7045,60.1414 46.2045,61.1414 45,62.5C 44.6667,62.1667 44.3333,61.8333 44,61.5C 43.5172,62.448 43.3505,63.448 43.5,64.5C 44.5,64.5 45.5,64.5 46.5,64.5C 46.5,65.5 46.5,66.5 46.5,67.5C 45.448,67.3505 44.448,67.5172 43.5,68C 44.7659,68.3095 45.9326,68.8095 47,69.5C 48.5406,65.9503 50.874,62.9503 54,60.5C 53.2572,64.4651 51.7572,68.1318 49.5,71.5C 38.1761,68.4414 35.1761,71.9414 40.5,82C 38.2105,85.4612 35.2105,87.9612 31.5,89.5C 26.8757,88.7422 24.8757,86.2422 25.5,82C 24.3268,78.1255 23.3268,77.6255 22.5,80.5C 21.069,80.0234 19.7357,79.3567 18.5,78.5C 19.8333,77.5 19.8333,76.5 18.5,75.5C 20.0116,74.7506 21.0116,73.584 21.5,72C 20.1564,68.1972 19.1564,64.3638 18.5,60.5C 17.325,60.719 16.325,60.3857 15.5,59.5C 16.0732,57.8397 16.0732,56.0063 15.5,54C 15.9314,50.8054 16.9314,47.8054 18.5,45C 22.243,45.6507 25.743,44.8173 29,42.5C 30.8114,43.0779 32.6447,43.5779 34.5,44C 35.8333,44.6667 35.8333,45.3333 34.5,46C 36.2861,46.1962 37.6195,47.0295 38.5,48.5C 36.2573,49.4742 33.924,49.8076 31.5,49.5C 31.4906,51.6608 30.8239,52.9941 29.5,53.5C 29.6799,54.5539 30.0133,55.5539 30.5,56.5C 24.5206,57.9955 24.3539,60.3288 30,63.5C 33.8125,62.8541 37.6458,62.3541 41.5,62C 40.2089,60.7083 40.2089,59.5417 41.5,58.5 Z"/></g>
<g><path style="opacity:1" fill="#de6757" d="M 141.5,52.5 C 142.833,58.5 140.5,60.8333 134.5,59.5C 136.23,62.5922 136.73,66.5922 136,71.5C 132.465,80.5042 125.965,84.8375 116.5,84.5C 116.413,79.4635 116.746,74.4635 117.5,69.5C 121.938,69.1173 122.605,67.284 119.5,64C 120.006,61.2646 120.006,58.4313 119.5,55.5C 116.505,55.7062 113.838,55.0395 111.5,53.5C 113.167,53.5 114.833,53.5 116.5,53.5C 116.343,52.1266 116.51,50.7932 117,49.5C 117.333,50.1667 117.667,50.8333 118,51.5C 119.406,50.3318 120.572,50.6652 121.5,52.5C 122.506,52.0623 122.506,51.3957 121.5,50.5C 122.689,49.5713 124.022,49.238 125.5,49.5C 126.652,45.8355 126.819,42.1688 126,38.5C 127.586,39.376 129.086,40.376 130.5,41.5C 131.716,40.9984 132.883,40.6651 134,40.5C 134.483,41.448 134.649,42.448 134.5,43.5C 135.978,43.238 137.311,43.5713 138.5,44.5C 139.213,46.7759 139.713,49.1093 140,51.5C 140.383,52.056 140.883,52.3893 141.5,52.5 Z"/></g>
<g><path style="opacity:0.913" fill="#e58373" d="M 285.5,62.5 C 285.357,64.2624 285.691,65.9291 286.5,67.5C 285.624,68.2508 284.624,68.7508 283.5,69C 290.656,69.9408 297.323,72.2742 303.5,76C 304.823,76.8159 305.489,77.9826 305.5,79.5C 296.592,72.8895 286.592,70.7228 275.5,73C 268.364,74.3033 264.031,78.4699 262.5,85.5C 263.508,88.6725 265.675,90.6725 269,91.5C 269.283,82.9194 273.45,77.2527 281.5,74.5C 282.91,74.8678 283.91,75.7011 284.5,77C 282.652,79.1792 280.485,81.0126 278,82.5C 276.275,87.7961 276.275,93.1295 278,98.5C 279.094,94.6964 281.594,92.3631 285.5,91.5C 286.308,91.8076 286.975,92.3076 287.5,93C 285.579,94.2408 285.246,95.7408 286.5,97.5C 292.175,98.7588 297.842,98.5921 303.5,97C 309.613,93.1491 310.946,87.9825 307.5,81.5C 308.79,82.0577 309.623,83.0577 310,84.5C 311.46,89.6403 310.293,93.9736 306.5,97.5C 306.957,98.2975 307.624,98.6309 308.5,98.5C 306.747,100.223 304.747,101.723 302.5,103C 299.424,103.346 296.424,104.012 293.5,105C 289.336,105.813 285.336,105.313 281.5,103.5C 281.167,103.667 280.833,103.833 280.5,104C 281.582,105.33 282.249,106.83 282.5,108.5C 280.589,108.426 279.422,107.426 279,105.5C 276.329,98.0113 274.495,90.3447 273.5,82.5C 272.914,82.7093 272.414,83.0426 272,83.5C 271.501,89.1569 271.334,94.8236 271.5,100.5C 270.736,98.2603 269.902,95.9269 269,93.5C 264.615,97.756 260.615,97.4227 257,92.5C 254.966,81.8032 259.133,74.3032 269.5,70C 274.44,68.5146 279.44,67.1813 284.5,66C 283.713,64.687 284.046,63.5203 285.5,62.5 Z"/></g>
<g><path style="opacity:1" fill="#de6752" d="M 49.5,71.5 C 50.7806,73.6261 52.1139,75.7927 53.5,78C 55.9757,78.6802 57.809,77.8469 59,75.5C 61.1651,77.6525 61.9984,80.3192 61.5,83.5C 62.8221,83.33 63.9887,83.6634 65,84.5C 65.1308,87.3712 66.2975,89.7046 68.5,91.5C 64.9236,94.6149 60.9236,95.2815 56.5,93.5C 53.7697,90.2873 50.7697,87.2873 47.5,84.5C 45.9918,86.5075 44.1584,88.1741 42,89.5C 39.8159,88.8919 37.8159,89.5586 36,91.5C 34.3775,90.9011 32.8775,90.2344 31.5,89.5C 35.2105,87.9612 38.2105,85.4612 40.5,82C 35.1761,71.9414 38.1761,68.4414 49.5,71.5 Z"/></g>
<g><path style="opacity:1" fill="#df6853" d="M 111.5,53.5 C 113.838,55.0395 116.505,55.7062 119.5,55.5C 120.006,58.4313 120.006,61.2646 119.5,64C 122.605,67.284 121.938,69.1173 117.5,69.5C 116.746,74.4635 116.413,79.4635 116.5,84.5C 115.549,85.9187 115.216,87.5853 115.5,89.5C 113.75,86.6446 112.917,83.3113 113,79.5C 111.477,77.3799 109.644,77.0465 107.5,78.5C 107.167,77.1667 106.833,75.8333 106.5,74.5C 105.132,73.4063 103.965,73.7397 103,75.5C 102.517,74.552 102.351,73.552 102.5,72.5C 101.325,72.281 100.325,72.6143 99.5,73.5C 99.1852,75.483 98.1852,76.8163 96.5,77.5C 96.5,75.8333 96.5,74.1667 96.5,72.5C 95.1667,72.5 93.8333,72.5 92.5,72.5C 92.4021,70.4471 93.0687,68.7804 94.5,67.5C 95.7348,67.2786 96.7348,66.6119 97.5,65.5C 97.6691,66.3966 98.0024,67.3966 98.5,68.5C 99.8333,67.1667 101.167,67.1667 102.5,68.5C 105.332,67.5036 106.665,65.5036 106.5,62.5C 104.712,62.7852 103.045,62.4519 101.5,61.5C 102.319,57.8822 102.319,54.2156 101.5,50.5C 104.363,48.5547 107.363,48.2214 110.5,49.5C 110.433,50.9587 110.766,52.2921 111.5,53.5 Z"/></g>
<g><path style="opacity:0.999" fill="#e47563" d="M 322.5,71.5 C 322.378,83.8404 322.045,96.1737 321.5,108.5C 320.22,113.798 322.22,116.632 327.5,117C 328.337,118.011 328.67,119.178 328.5,120.5C 318.634,124.562 313.968,121.229 314.5,110.5C 314.598,107.449 314.931,104.449 315.5,101.5C 317.343,92.8691 317.676,84.2025 316.5,75.5C 315.833,75.5 315.5,75.1667 315.5,74.5C 315.938,74.5654 316.272,74.3988 316.5,74C 315.027,73.2904 314.36,72.1238 314.5,70.5C 317.237,70.4013 319.904,70.7347 322.5,71.5 Z"/></g>
<g><path style="opacity:1" fill="#605a4b" d="M 159.5,70.5 C 160.675,70.281 161.675,70.6143 162.5,71.5C 161.242,74.4995 159.242,75.4995 156.5,74.5C 157.524,73.1482 158.524,71.8149 159.5,70.5 Z"/></g>
<g><path style="opacity:0.783" fill="#e89689" d="M 322.5,71.5 C 319.904,70.7347 317.237,70.4013 314.5,70.5C 314.36,72.1238 315.027,73.2904 316.5,74C 316.272,74.3988 315.938,74.5654 315.5,74.5C 314.244,74.4614 313.244,74.9614 312.5,76C 314.041,77.5793 315.208,79.4127 316,81.5C 316.495,79.5273 316.662,77.5273 316.5,75.5C 317.676,84.2025 317.343,92.8691 315.5,101.5C 315.806,98.6146 315.473,95.9479 314.5,93.5C 315.735,89.1477 315.568,84.8144 314,80.5C 311.59,77.6032 309.423,74.6032 307.5,71.5C 310.928,70.5259 314.428,69.8592 318,69.5C 319.986,69.5687 321.486,70.2353 322.5,71.5 Z"/></g>
<g><path style="opacity:1" fill="#e77760" d="M 188.5,57.5 C 188.726,64.8761 188.392,72.2094 187.5,79.5C 185.833,79.5 184.167,79.5 182.5,79.5C 182.5,78.5 182.5,77.5 182.5,76.5C 183.362,71.1871 183.529,65.8538 183,60.5C 182.074,58.3083 180.907,56.3083 179.5,54.5C 179.746,51.5299 181.412,50.1966 184.5,50.5C 184.998,53.3263 186.331,55.6597 188.5,57.5 Z"/></g>
<g><path style="opacity:1" fill="#df7361" d="M 115.5,89.5 C 114.306,90.2719 113.306,91.2719 112.5,92.5C 110.393,93.4682 108.059,93.8016 105.5,93.5C 100.833,93.5 96.1667,93.5 91.5,93.5C 90.5876,92.2618 90.4209,90.9285 91,89.5C 91.9138,90.6537 92.7471,90.487 93.5,89C 92.2298,88.1004 91.2298,86.9337 90.5,85.5C 89.1311,87.124 87.4645,87.624 85.5,87C 90.6659,85.1776 90.8325,83.0109 86,80.5C 85.0347,82.2603 83.868,82.5937 82.5,81.5C 83.0412,79.4648 83.7078,77.4648 84.5,75.5C 88.3556,77.0033 92.3556,77.67 96.5,77.5C 98.1852,76.8163 99.1852,75.483 99.5,73.5C 100.325,72.6143 101.325,72.281 102.5,72.5C 102.351,73.552 102.517,74.552 103,75.5C 103.965,73.7397 105.132,73.4063 106.5,74.5C 106.833,75.8333 107.167,77.1667 107.5,78.5C 109.644,77.0465 111.477,77.3799 113,79.5C 112.917,83.3113 113.75,86.6446 115.5,89.5 Z"/></g>
<g><path style="opacity:1" fill="#656051" d="M 156.5,78.5 C 159.061,78.4469 161.061,79.4469 162.5,81.5C 159.474,82.6537 157.474,81.6537 156.5,78.5 Z"/></g>
<g><path style="opacity:1" fill="#6f6a5c" d="M 149.5,79.5 C 150.675,79.281 151.675,79.6143 152.5,80.5C 151.645,84.0791 149.645,85.4124 146.5,84.5C 147.26,82.6396 148.26,80.973 149.5,79.5 Z"/></g>
<g><path style="opacity:0.999" fill="#e16d5a" d="M 282.5,108.5 C 283.162,112.157 283.829,115.824 284.5,119.5C 284.964,122.91 283.63,125.244 280.5,126.5C 280.728,123.122 280.394,119.622 279.5,116C 278.118,112.06 276.118,108.56 273.5,105.5C 272.069,104.22 271.402,102.553 271.5,100.5C 271.334,94.8236 271.501,89.1569 272,83.5C 272.414,83.0426 272.914,82.7093 273.5,82.5C 274.495,90.3447 276.329,98.0113 279,105.5C 279.422,107.426 280.589,108.426 282.5,108.5 Z"/></g>
<g><path style="opacity:1" fill="#e77c67" d="M 179.5,81.5 C 180.5,81.5 181.5,81.5 182.5,81.5C 182.838,84.1569 182.171,86.4902 180.5,88.5C 177.976,90.1901 175.976,92.3568 174.5,95C 172.725,96.4389 170.725,97.4389 168.5,98C 166.582,100.731 164.582,103.231 162.5,105.5C 158.307,105.953 154.307,107.119 150.5,109C 140.833,109.667 131.167,109.667 121.5,109C 120.748,108.329 120.414,107.496 120.5,106.5C 121.289,106.217 121.956,105.717 122.5,105C 131.5,104.667 140.5,104.333 149.5,104C 150.737,103.768 151.737,103.268 152.5,102.5C 163.581,98.1319 172.581,91.1319 179.5,81.5 Z"/></g>
<g><path style="opacity:0.999" fill="#e98a7d" d="M 141.5,41.5 C 142.167,47.1667 142.833,52.8333 143.5,58.5C 139.411,75.5864 129.078,86.9198 112.5,92.5C 113.306,91.2719 114.306,90.2719 115.5,89.5C 115.216,87.5853 115.549,85.9187 116.5,84.5C 125.965,84.8375 132.465,80.5042 136,71.5C 136.73,66.5922 136.23,62.5922 134.5,59.5C 140.5,60.8333 142.833,58.5 141.5,52.5C 141.5,48.8333 141.5,45.1667 141.5,41.5 Z"/></g>
<g><path style="opacity:0.998" fill="#e47664" d="M 371.5,97.5 C 373.206,101.239 375.206,104.905 377.5,108.5C 376.64,110.931 374.973,112.264 372.5,112.5C 372.799,110.396 372.466,108.396 371.5,106.5C 369.167,104.833 367.167,102.833 365.5,100.5C 364.583,99.8728 363.583,99.5394 362.5,99.5C 356.136,94.9391 356.136,90.4391 362.5,86C 366.944,83.4137 371.61,82.9137 376.5,84.5C 379.821,90.8411 377.821,93.8411 370.5,93.5C 370.616,90.0897 368.95,88.7564 365.5,89.5C 367.041,92.3931 369.041,95.0597 371.5,97.5 Z"/></g>
<g><path style="opacity:0.998" fill="#e36f5c" d="M 332.5,93.5 C 332.821,95.0481 333.821,95.7148 335.5,95.5C 335.334,99.5138 335.501,103.514 336,107.5C 337.862,109.361 337.362,110.694 334.5,111.5C 334.624,112.107 334.957,112.44 335.5,112.5C 334.791,113.404 333.791,113.737 332.5,113.5C 331.999,108.492 331.332,103.492 330.5,98.5C 329.817,98.8627 329.15,99.1961 328.5,99.5C 326.775,99.1575 326.275,98.1575 327,96.5C 328.78,95.3606 330.614,94.3606 332.5,93.5 Z"/></g>
<g><path style="opacity:0.192" fill="#ebb0a5" d="M 30.5,92.5 C 30.56,91.9569 30.8933,91.6236 31.5,91.5C 41.7057,97.3141 52.3724,98.9808 63.5,96.5C 67.3189,96.395 70.9855,95.5617 74.5,94C 80.1569,93.5006 85.8236,93.3339 91.5,93.5C 96.1667,93.5 100.833,93.5 105.5,93.5C 104.391,94.29 103.058,94.79 101.5,95C 94.1667,95.3333 86.8333,95.6667 79.5,96C 66.9546,99.3209 54.288,99.9876 41.5,98C 37.8068,96.1534 34.1401,94.3201 30.5,92.5 Z"/></g>
<g><path style="opacity:0.847" fill="#ef9d8d" d="M 182.5,76.5 C 182.5,77.5 182.5,78.5 182.5,79.5C 184.167,79.5 185.833,79.5 187.5,79.5C 185.68,84.3272 183.014,88.6606 179.5,92.5C 176.023,96.0669 172.356,99.4002 168.5,102.5C 166.466,103.559 164.466,104.559 162.5,105.5C 164.582,103.231 166.582,100.731 168.5,98C 170.725,97.4389 172.725,96.4389 174.5,95C 175.976,92.3568 177.976,90.1901 180.5,88.5C 182.171,86.4902 182.838,84.1569 182.5,81.5C 181.5,81.5 180.5,81.5 179.5,81.5C 179.75,79.326 180.75,77.6594 182.5,76.5 Z"/></g>
<g><path style="opacity:0.165" fill="#efc7c2" d="M 322.5,71.5 C 323.76,83.8623 323.427,96.1956 321.5,108.5C 322.045,96.1737 322.378,83.8404 322.5,71.5 Z"/></g>
<g><path style="opacity:1" fill="#f4d0c5" d="M 123.5,102.5 C 133.156,103.723 142.823,103.723 152.5,102.5C 151.737,103.268 150.737,103.768 149.5,104C 140.5,104.333 131.5,104.667 122.5,105C 121.956,105.717 121.289,106.217 120.5,106.5C 119.522,106.811 118.855,107.478 118.5,108.5C 119.901,109.521 121.235,110.521 122.5,111.5C 118.323,112.158 116.823,110.492 118,106.5C 119.73,104.924 121.563,103.59 123.5,102.5 Z"/></g>
<g><path style="opacity:0.275" fill="#e5aea4" d="M 332.5,113.5 C 331.883,113.389 331.383,113.056 331,112.5C 331.009,107.863 330.175,103.529 328.5,99.5C 329.15,99.1961 329.817,98.8627 330.5,98.5C 331.332,103.492 331.999,108.492 332.5,113.5 Z"/></g>
<g><path style="opacity:0.999" fill="#e98c7b" d="M 56.5,105.5 C 57.8596,111.22 60.5263,116.22 64.5,120.5C 62.0637,120.683 59.897,120.016 58,118.5C 57.376,120.464 57.876,122.131 59.5,123.5C 66.3329,128.406 73.3329,132.739 80.5,136.5C 63.4188,133.25 52.0854,123.416 46.5,107C 47.0439,105.053 48.3772,104.22 50.5,104.5C 52.5122,104.84 54.5122,105.173 56.5,105.5 Z"/></g>
<g><path style="opacity:0.992" fill="#f9f4ed" d="M 142.5,118.5 C 142.631,119.239 142.464,119.906 142,120.5C 138.642,123.031 135.476,125.698 132.5,128.5C 126.231,129.565 120.231,131.231 114.5,133.5C 98.6506,134.952 83.6506,132.119 69.5,125C 67.9625,123.293 66.2959,121.793 64.5,120.5C 60.5263,116.22 57.8596,111.22 56.5,105.5C 85.5335,107.379 114.2,111.713 142.5,118.5 Z"/></g>
<g><path style="opacity:0.84" fill="#ec9988" d="M 162.5,105.5 C 157.572,108.457 152.239,110.624 146.5,112C 138.323,112.823 130.323,112.656 122.5,111.5C 121.235,110.521 119.901,109.521 118.5,108.5C 118.855,107.478 119.522,106.811 120.5,106.5C 120.414,107.496 120.748,108.329 121.5,109C 131.167,109.667 140.833,109.667 150.5,109C 154.307,107.119 158.307,105.953 162.5,105.5 Z"/></g>
<g><path style="opacity:0.886" fill="#e88e81" d="M 332.5,93.5 C 334.144,93.2865 335.644,93.6198 337,94.5C 337.176,97.8818 337.676,101.215 338.5,104.5C 341.392,101.729 344.058,98.729 346.5,95.5C 347.869,93.876 349.536,93.376 351.5,94C 352.021,100.257 352.855,106.424 354,112.5C 355.219,108.108 358.052,105.774 362.5,105.5C 362.326,107.861 361.993,110.194 361.5,112.5C 365.412,114.353 368.745,113.686 371.5,110.5C 368.855,106.524 365.855,102.857 362.5,99.5C 363.583,99.5394 364.583,99.8728 365.5,100.5C 367.167,102.833 369.167,104.833 371.5,106.5C 372.466,108.396 372.799,110.396 372.5,112.5C 374.973,112.264 376.64,110.931 377.5,108.5C 375.206,104.905 373.206,101.239 371.5,97.5C 378.794,102.478 379.794,108.312 374.5,115C 370.936,117.199 367.102,118.699 363,119.5C 360.391,119.162 358.224,118.162 356.5,116.5C 347.574,119.276 343.408,115.943 344,106.5C 341.823,109.523 338.989,111.523 335.5,112.5C 334.957,112.44 334.624,112.107 334.5,111.5C 337.362,110.694 337.862,109.361 336,107.5C 335.501,103.514 335.334,99.5138 335.5,95.5C 333.821,95.7148 332.821,95.0481 332.5,93.5 Z"/></g>
<g><path style="opacity:0.991" fill="#e16d5a" d="M 356.5,116.5 C 353.642,115.834 350.642,115.167 347.5,114.5C 346.574,110.906 346.241,107.24 346.5,103.5C 345.127,103.657 343.793,103.49 342.5,103C 343.92,100.791 345.587,98.7911 347.5,97C 348.448,96.5172 349.448,96.3505 350.5,96.5C 350.161,101.93 350.661,107.264 352,112.5C 353.049,113.517 354.216,113.684 355.5,113C 358.969,105.332 360.469,105.166 360,112.5C 362.398,113.856 364.898,115.023 367.5,116C 363.91,117.822 360.243,117.989 356.5,116.5 Z"/></g>
<g><path style="opacity:1" fill="#7e796c" d="M 87.5,112.5 C 97.9948,114.042 97.9948,115.042 87.5,115.5C 87.5,114.5 87.5,113.5 87.5,112.5 Z"/></g>
<g><path style="opacity:1" fill="#645f50" d="M 102.5,116.5 C 105.508,115.079 108.508,115.246 111.5,117C 108.408,117.736 105.408,117.569 102.5,116.5 Z"/></g>
<g><path style="opacity:0.998" fill="#e57d6d" d="M 273.5,105.5 C 276.118,108.56 278.118,112.06 279.5,116C 280.394,119.622 280.728,123.122 280.5,126.5C 283.63,125.244 284.964,122.91 284.5,119.5C 283.829,115.824 283.162,112.157 282.5,108.5C 289.319,119.543 286.652,127.376 274.5,132C 266.556,134.478 259.722,132.645 254,126.5C 253.333,123.5 253.333,120.5 254,117.5C 259.233,111.021 265.566,109.355 273,112.5C 275.197,116.177 274.03,118.177 269.5,118.5C 267.085,116.784 264.418,116.284 261.5,117C 259.586,121.794 261.253,124.794 266.5,126C 269.5,126.667 272.5,126.667 275.5,126C 277.594,124.745 278.594,122.912 278.5,120.5C 276.546,115.593 274.879,110.593 273.5,105.5 Z"/></g>
<g><path style="opacity:1" fill="#625c4d" d="M 97.5,116.5 C 100.144,118.66 99.8111,120.66 96.5,122.5C 95.2302,120.243 95.5636,118.243 97.5,116.5 Z"/></g>
<g><path style="opacity:0.999" fill="#e98166" d="M 142.5,118.5 C 144.527,118.338 146.527,118.505 148.5,119C 149.719,123.325 148.052,126.158 143.5,127.5C 139.809,129.519 135.975,131.185 132,132.5C 130.833,132.333 129.667,132.167 128.5,132C 130.093,131.051 131.426,129.885 132.5,128.5C 135.476,125.698 138.642,123.031 142,120.5C 142.464,119.906 142.631,119.239 142.5,118.5 Z"/></g>
<g><path style="opacity:0.997" fill="#e67d68" d="M 64.5,120.5 C 66.2959,121.793 67.9625,123.293 69.5,125C 83.6506,132.119 98.6506,134.952 114.5,133.5C 116.924,133.192 119.257,133.526 121.5,134.5C 119.922,135.298 118.256,135.798 116.5,136C 104.649,136.286 92.982,136.453 81.5,136.5C 81.1667,136.5 80.8333,136.5 80.5,136.5C 73.3329,132.739 66.3329,128.406 59.5,123.5C 57.876,122.131 57.376,120.464 58,118.5C 59.897,120.016 62.0637,120.683 64.5,120.5 Z"/></g>
<g><path style="opacity:0.991" fill="#eb917f" d="M 143.5,127.5 C 141.929,130.231 139.595,132.065 136.5,133C 131.162,135.752 125.495,137.418 119.5,138C 106.713,138.985 94.0459,138.485 81.5,136.5C 92.982,136.453 104.649,136.286 116.5,136C 118.256,135.798 119.922,135.298 121.5,134.5C 119.257,133.526 116.924,133.192 114.5,133.5C 120.231,131.231 126.231,129.565 132.5,128.5C 131.426,129.885 130.093,131.051 128.5,132C 129.667,132.167 130.833,132.333 132,132.5C 135.975,131.185 139.809,129.519 143.5,127.5 Z"/></g>
</svg>
